<?xml version="1.0" encoding="UTF-8" standalone="no"?>
<!-- Created with Inkscape (http://www.inkscape.org/) -->

<svg
   xmlns:dc="http://purl.org/dc/elements/1.1/"
   xmlns:cc="http://creativecommons.org/ns#"
   xmlns:rdf="http://www.w3.org/1999/02/22-rdf-syntax-ns#"
   xmlns:svg="http://www.w3.org/2000/svg"
   xmlns="http://www.w3.org/2000/svg"
   xmlns:sodipodi="http://sodipodi.sourceforge.net/DTD/sodipodi-0.dtd"
   xmlns:inkscape="http://www.inkscape.org/namespaces/inkscape"
   width="744.09448819"
   height="1052.3622047"
   id="svg2"
   version="1.1"
   inkscape:version="0.48.4 r9939"
   sodipodi:docname="Новый документ 1">
  <defs
     id="defs4" />
  <sodipodi:namedview
     id="base"
     pagecolor="#ffffff"
     bordercolor="#666666"
     borderopacity="1.0"
     inkscape:pageopacity="0.0"
     inkscape:pageshadow="2"
     inkscape:zoom="5.6"
     inkscape:cx="296.68568"
     inkscape:cy="665.88265"
     inkscape:document-units="px"
     inkscape:current-layer="layer1"
     showgrid="false"
     inkscape:window-width="452"
     inkscape:window-height="370"
     inkscape:window-x="606"
     inkscape:window-y="103"
     inkscape:window-maximized="0" />
  <metadata
     id="metadata7">
    <rdf:RDF>
      <cc:Work
         rdf:about="">
        <dc:format>image/svg+xml</dc:format>
        <dc:type
           rdf:resource="http://purl.org/dc/dcmitype/StillImage" />
        <dc:title></dc:title>
      </cc:Work>
    </rdf:RDF>
  </metadata>
  <g
     inkscape:label="Layer 1"
     inkscape:groupmode="layer"
     id="layer1">
    <g
       id="g3092"
       transform="translate(220.04765,383.8674)">
      <g
         id="icomoon-ignore" />
      <path
         id="bell"
         d="M 14.65,8.513 C 12.37,3.606 11.185,1.742 7.459,1.82 6.132,1.847 6.451,0.859 5.439,1.234 4.427,1.609 5.296,2.157 4.261,3.006 1.359,5.388 1.626,7.592 2.972,12.846 3.54,15.058 1.605,15.167 2.37,17.312 c 0.559,1.563 4.679,2.219 9.026,0.605 4.347,-1.612 7.09,-4.813 6.531,-6.378 -0.765,-2.144 -2.316,-0.96 -3.277,-3.026 z m -3.726,8.083 c -3.881,1.44 -7.072,0.593 -7.207,0.217 -0.232,-0.649 1.253,-2.816 5.691,-4.463 4.438,-1.647 6.915,-1.036 7.174,-0.311 0.153,0.428 -1.775,3.116 -5.658,4.557 z M 9.677,13.102 c -2.03,0.753 -3.44,1.614 -4.353,2.39 0.643,0.584 1.846,0.726 3.046,0.281 1.527,-0.567 2.465,-1.868 2.094,-2.905 -0.004,-0.013 -0.011,-0.024 -0.016,-0.036 -0.25,0.081 -0.507,0.171 -0.771,0.27 z"
         inkscape:connector-curvature="0"
         style="fill:#000000" />
    </g>
    <g
       id="g3094"
       transform="translate(238.82374,383.40718)">
      <g
         id="icomoon-ignore-7" />
      <path
         id="box"
         d="M 18.4,2 H 1.6 C 1.269,2 1,2.269 1,2.6 V 5 H 19 V 2.6 C 19,2.269 18.731,2 18.4,2 z M 2,16.6 C 2,17.37 2.63,18 3.4,18 H 16.6 C 17.371,18 18,17.37 18,16.6 V 6 H 2 V 16.6 z M 7,8 h 6 v 2 H 7 V 8 z"
         inkscape:connector-curvature="0"
         style="fill:#000000" />
    </g>
    <g
       id="g3096"
       transform="translate(260.57643,382.91697)">
      <g
         id="icomoon-ignore-5" />
      <path
         id="cop"
         d="M 10,1.8 C 5.721,1.8 3.062,3.21 3.206,4.354 l 1.442,11.867 c 0.057,0.462 2.221,1.976 5.352,1.979 3.132,-0.003 5.295,-1.518 5.353,-1.979 L 16.794,4.354 C 16.938,3.21 14.28,1.8 10,1.8 z m 0,4.291 C 6.869,6.088 4.647,4.973 4.647,4.556 4.646,4.142 6.869,3.024 10,3.026 c 3.131,-10e-4 5.354,1.116 5.353,1.53 0,0.417 -2.221,1.532 -5.353,1.535 z"
         inkscape:connector-curvature="0"
         style="fill:#000000" />
    </g>
    <g
       id="g3098"
       transform="translate(280.05649,382.87715)">
      <g
         id="icomoon-ignore-0" />
      <path
         id="heart"
         d="m 17.189,4.151 c -1.672,-1.535 -4.383,-1.535 -6.055,0 L 10,5.193 8.865,4.151 C 7.193,2.616 4.483,2.616 2.811,4.151 0.93,5.877 0.93,8.675 2.811,10.402 L 10,17 17.189,10.402 c 1.881,-1.727 1.881,-4.525 0,-6.251 z"
         inkscape:connector-curvature="0"
         style="fill:#000000" />
    </g>
    <g
       id="g3100"
       transform="translate(301.47274,383.06987)">
      <g
         id="icomoon-ignore-74" />
      <path
         id="earth"
         d="m 10,0.399 c -5.294,0 -9.6,4.308 -9.6,9.601 0,5.294 4.306,9.601 9.6,9.601 5.294,0 9.6,-4.307 9.6,-9.601 C 19.6,4.707 15.294,0.399 10,0.399 z M 18.188,10 c 0,1.873 -0.636,3.601 -1.696,4.981 -0.3,-0.235 -0.618,-0.868 -0.318,-1.524 0.302,-0.66 0.381,-2.188 0.312,-2.782 C 16.42,10.081 16.111,8.649 15.271,8.635 14.434,8.622 13.859,8.346 13.361,7.352 12.328,5.285 15.3,4.887 14.267,3.742 13.978,3.421 12.484,5.066 12.265,2.874 12.25,2.717 12.4,2.482 12.6,2.239 15.844,3.329 18.188,6.395 18.188,10 z M 8.875,1.894 C 8.68,2.274 8.163,2.43 7.848,2.717 7.165,3.335 6.871,3.25 6.502,3.844 6.133,4.438 4.936,5.293 4.936,5.723 c 0,0.429 0.604,0.937 0.906,0.838 0.302,-0.1 1.098,-0.094 1.566,0.07 0.469,0.166 3.915,0.331 2.816,3.244 -0.348,0.926 -1.872,0.77 -2.278,2.304 -0.061,0.225 -0.271,1.186 -0.286,1.5 -0.024,0.486 0.344,2.318 -0.125,2.318 -0.471,0 -1.737,-1.639 -1.737,-1.936 0,-0.297 -0.329,-1.339 -0.329,-2.23 0,-0.891 -1.517,-0.877 -1.517,-2.062 0,-1.07 0.823,-1.602 0.638,-2.113 C 4.408,7.146 2.963,7.128 2.361,7.066 3.413,4.334 5.89,2.306 8.875,1.894 z M 7.425,17.77 c 0.492,-0.259 0.542,-0.595 0.988,-0.613 0.51,-0.022 0.925,-0.199 1.499,-0.325 0.511,-0.111 1.423,-0.629 2.228,-0.695 0.677,-0.056 2.015,0.035 2.375,0.689 -1.296,0.86 -2.848,1.362 -4.515,1.362 -0.9,0 -1.765,-0.148 -2.575,-0.418 z"
         inkscape:connector-curvature="0"
         style="fill:#000000" />
    </g>
    <g
       id="g3102"
       transform="translate(323.53298,382.75298)">
      <g
         id="icomoon-ignore-9" />
      <path
         id="eye"
         d="M 10,4.4 C 3.439,4.4 0,9.233 0,10 c 0,0.767 3.439,5.6 10,5.6 6.561,0 10,-4.833 10,-5.6 C 20,9.233 16.561,4.4 10,4.4 z m 0,9.908 C 7.546,14.308 5.556,12.379 5.556,10 5.556,7.621 7.546,5.692 10,5.692 c 2.455,0 4.445,1.929 4.445,4.308 0,2.379 -1.99,4.308 -4.445,4.308 z M 10,10 C 9.594,9.554 10.664,7.847 10,7.847 8.773,7.847 7.778,8.811 7.778,10 c 0,1.189 0.995,2.154 2.222,2.154 1.228,0 2.223,-0.965 2.223,-2.154 0,-0.546 -1.876,0.38 -2.223,0 z"
         inkscape:connector-curvature="0"
         style="fill:#000000" />
    </g>
    <g
       id="g3104"
       transform="translate(345.36095,380.96521)">
      <g
         id="icomoon-ignore-1" />
      <path
         id="house"
         d="M 18.77,10.3 10.746,2.269 c -0.41,-0.426 -1.081,-0.426 -1.491,0 L 1.23,10.3 c -0.411,0.425 -0.258,0.774 0.34,0.774 h 1.673 v 6.168 c 0,0.445 0.019,0.809 0.824,0.809 h 3.895 v -6.188 h 4.075 v 6.188 h 4.089 c 0.614,0 0.631,-0.363 0.631,-0.809 v -6.168 h 1.672 c 0.597,0 0.751,-0.348 0.341,-0.774 z"
         inkscape:connector-curvature="0"
         style="fill:#000000" />
    </g>
  </g>
</svg>
